<?xml version="1.0" standalone="no"?>
<!DOCTYPE svg PUBLIC "-//W3C//DTD SVG 20010904//EN"
 "http://www.w3.org/TR/2001/REC-SVG-20010904/DTD/svg10.dtd">
<svg version="1.0" xmlns="http://www.w3.org/2000/svg"
 width="260.000000pt" height="260.000000pt" viewBox="0 0 260.000000 260.000000"
 preserveAspectRatio="xMidYMid meet">
<metadata>
Created by potrace 1.14, written by Peter Selinger 2001-2017
</metadata>
<g transform="translate(0.000000,260.000000) scale(0.100000,-0.100000)"
fill="#000000" stroke="none">
<path d="M0 1300 l0 -1300 1300 0 1300 0 0 1300 0 1300 -1300 0 -1300 0 0
-1300z m1713 825 c114 -30 186 -84 231 -173 37 -74 46 -139 46 -342 l0 -190
-129 0 -129 0 -3 199 c-4 183 -6 202 -25 228 -51 70 -134 80 -197 23 l-32 -28
-3 -486 c-2 -422 -1 -490 13 -516 42 -81 178 -80 222 3 15 26 18 65 21 225 l4
192 129 0 129 0 0 -185 c0 -101 -5 -208 -11 -237 -25 -119 -89 -200 -198 -252
-63 -29 -72 -31 -186 -31 -101 0 -129 4 -176 23 -112 45 -184 138 -208 266
-15 81 -15 921 0 1002 22 122 83 205 185 254 82 40 218 51 317 25z m-843 -665
l0 -660 145 0 145 0 0 -115 0 -115 -280 0 -280 0 0 775 0 775 135 0 135 0 0
-660z"/>
</g>
</svg>
